<svg xmlns="http://www.w3.org/2000/svg">
   
    <symbol id="coffee" viewBox="0 0 612.003 612.003">
        <path d="M153.422 510.297H366.027c143.455-75.332 126.23-310.404 126.23-310.404v-3.478H27.712v3.478s-17.74 235.073 125.71 310.404zM200.115 172.385c-7.08-28.72 10.276-46.448 10.634-46.812.018-.02.012-.013.037-.03 27.923-24.628 20.59-49.25 11.65-63.82-.947-1.543-3.232-.37-2.66 1.35 3.094 9.267-.478 19.18-21.527 43.737-23.566 27.496-9.247 54.986-.76 66.863.96 1.35 3.02.32 2.625-1.288zM320.11 172.473c-10.313-37.515 12.475-60.76 12.902-61.194.02-.02.02-.014.038-.032 37.69-33.234 24.57-66.455 12.41-84.227-1.022-1.493-3.364-.143-2.585 1.49 6.165 13 3.804 24.67-25.67 59.053-30.973 36.134-10.15 72.274.296 86.204 1.004 1.336 3.05.307 2.61-1.294zM511.17 535.408H12.578c-10.848 0-16.586 12.825-9.36 20.917l22.46 25.117c2.38 2.668 5.783 4.187 9.355 4.187H488.71c3.572 0 6.974-1.52 9.36-4.188l22.455-25.117c7.225-8.092 1.488-20.917-9.354-20.917z"/>
        <path d="M611.996 299.212c0-83.072-78.226-78.044-93.913-76.198.03 10.44-.257 23.698-1.255 38.827 11.406-2.617 55.777-11.28 53.26 36.813 0 0-4.61 65.45-78.14 91.082-6.986 19.85-15.768 39.505-26.867 58.037 150.413-58.846 146.916-148.56 146.916-148.56z"/>
    </symbol><!--/coffee-->

    <symbol id="card" viewBox="0 0 611.996 611.996">
        <path d="M588.63 113.193L213.812 33.87c-15.858-3.354-31.576 6.877-34.93 22.735l-7.122 45.762 432.477 91.52 7.12-45.763c3.356-15.852-6.87-31.575-22.727-34.93zM431.01 203.59c-4.38-15.765-20.855-25.084-36.616-20.713L323.24 202.63l-167.742-35.5-18.448 87.165-115.264 31.992c-15.76 4.372-25.08 20.848-20.708 36.61l64.958 234.077c4.378 15.76 20.855 25.085 36.615 20.708L475.26 474.28c15.76-4.38 25.078-20.85 20.707-36.616l-11.15-40.184 41.79 8.835c15.857 3.36 31.575-6.87 34.93-22.728l26.44-124.937-150.527-31.853-6.44-23.206zm43.03 118.97l9.215-43.553c1.384-6.52 7.85-10.727 14.37-9.35l43.552 9.22c6.527 1.385 10.733 7.844 9.356 14.37l-9.215 43.553c-1.384 6.52-7.85 10.733-14.37 9.35l-43.552-9.215c-6.533-1.39-10.74-7.855-9.356-14.376zM28.27 309.645l103.115-28.606 243.3-67.517 26.18-7.274c.478-.13.955-.19 1.42-.19 2.1 0 4.612 1.377 5.346 4.016l3.075 11.07 9.63 34.704L37.15 362.186l-12.705-45.768c-.796-2.872.956-5.976 3.827-6.772zM472.6 444.14c.49 1.777-.023 3.246-.544 4.165-.514.918-1.506 2.12-3.282 2.608l-372.6 103.403c-.472.13-.956.196-1.422.196-2.1 0-4.61-1.384-5.345-4.023L51.52 413.954l383.187-106.342 23.37 84.208 14.524 52.32z"/>
        <path d="M156.38 453.484c-1.79-6.43-8.5-10.225-14.93-8.443l-43.514 12.08c-6.423 1.783-10.225 8.5-8.437 14.93l12.073 43.508c1.788 6.43 8.5 10.225 14.928 8.437l43.516-12.074c6.43-1.78 10.225-8.498 8.443-14.927l-12.08-43.51z"/>
    </symbol><!--/card-->

    <symbol id="heart" viewBox="0 0 612.008 612.008">
        <path d="M609.383 170.157c-11.48-66.076-59.97-117.694-125.18-130.505-67.537-13.263-134.697 16.207-169.347 74.29-2.642 4.41-8.735 14.84-8.85 14.682-.118.158-6.21-10.272-8.852-14.683-34.65-58.08-101.81-87.55-169.347-74.288C62.6 52.462 14.105 104.082 2.625 170.157c-9.01 51.83 5.846 100.83 34.177 143.98 22.506 34.295 47.612 67.56 75.764 97.31 57.794 61.1 125.613 110.93 193.43 164.05 67.826-53.12 135.645-102.95 193.432-164.05 28.152-29.75 53.26-63.022 75.764-97.31 28.338-43.15 43.2-92.14 34.19-143.98zm-474.085-53.203c-14.93.192-29.64 7.074-40.38 18.876-11.253 12.378-16.714 28.228-15.363 44.634.714 8.714-5.77 16.35-14.47 17.064-.447.034-.88.055-1.312.055-8.15 0-15.075-6.264-15.754-14.533-2.04-24.88 6.524-49.848 23.493-68.512 16.605-18.265 39.707-28.92 63.372-29.23 8.66-.2 15.905 6.875 16.028 15.61.105 8.742-6.873 15.92-15.615 16.036z"/>
    </symbol><!--/heart-->

    <symbol id="time" viewBox="0 0 612 612">
        <path d="M306 .006C137 .006 0 137 0 306s137 305.994 306 305.994C474.994 611.994 612 475 612 306S474.994.006 306 .006zm0 550.79C171.02 550.795 61.205 440.98 61.205 306S171.02 61.205 306 61.205 550.795 171.02 550.795 306 440.98 550.795 306 550.795z"/>
        <path d="M471.524 186.754c-3.898-5.532-11.536-6.848-17.068-2.95l-134.594 94.95c-4.168-2.13-8.868-3.348-13.862-3.348-2.313 0-4.553.282-6.72.765l-96.345-81.98c-5.147-4.39-12.864-3.765-17.258 1.388l-7.925 9.314c-4.388 5.147-3.764 12.87 1.383 17.258l96.357 82c-.037.618-.092 1.23-.092 1.854 0 15.483 11.573 28.292 26.524 30.293V510h8.164V336.293c14.945-2.007 26.517-14.81 26.517-30.293 0-1.328-.116-2.625-.282-3.91l134.6-94.95c5.527-3.9 6.85-11.537 2.95-17.063l-2.35-3.323z"/>
    </symbol><!--/time-->
    
    <symbol id="youtube" viewBox="0 0 98 98">
        
        <path d="M48.875,0C21.882,0 0,21.882 0,48.875C0,75.868 21.882,97.75 48.875,97.75C75.868,97.75 97.75,75.868 97.75,48.875C97.75,21.882 75.868,0 48.875,0Z" style="fill:rgba(210, 42, 35, 1);"/>
            <path d="M54.311,22.86L57.632,22.86L57.632,36.392C57.632,37.173 57.632,37.578 57.672,37.687C57.745,38.203 58.007,38.467 58.453,38.467C59.119,38.467 59.818,37.951 60.557,36.908L60.557,22.86L63.887,22.86L63.887,41.239L60.557,41.239L60.557,39.235C59.231,40.755 57.967,41.492 56.752,41.492C55.68,41.492 54.94,41.057 54.606,40.127C54.422,39.57 54.311,38.691 54.311,37.394L54.311,22.86L54.311,22.86Z" style="fill:white;"/>
            <path d="M41.733,28.853C41.733,26.888 42.067,25.452 42.775,24.523C43.696,23.266 44.993,22.638 46.653,22.638C48.321,22.638 49.617,23.266 50.538,24.523C51.236,25.451 51.57,26.888 51.57,28.853L51.57,35.289C51.57,37.243 51.236,38.692 50.538,39.611C49.617,40.865 48.321,41.492 46.653,41.492C44.993,41.492 43.696,40.865 42.775,39.611C42.067,38.692 41.733,37.242 41.733,35.289L41.733,28.853Z" style="fill:white;"/>
            <path d="M46.653,38.466C47.726,38.466 48.241,37.615 48.241,35.915L48.241,28.184C48.241,26.483 47.726,25.636 46.653,25.636C45.579,25.636 45.063,26.484 45.063,28.184L45.063,35.915C45.063,37.616 45.579,38.466 46.653,38.466Z" style="fill:rgba(210, 42, 35, 1);fill-opacity:0.968628;fill-rule:nonzero;"/>
            <path d="M32.827,16.576L35.449,26.261L37.968,16.576L41.703,16.576L37.26,31.251L37.26,41.24L33.568,41.24L33.568,31.251C33.233,29.481 32.494,26.888 31.309,23.448C30.531,21.159 29.72,18.863 28.942,16.576L32.827,16.576Z" style="fill:white;"/>
            <path d="M75.186,75.061C74.518,77.96 72.147,80.1 69.292,80.419C62.529,81.174 55.688,81.178 48.872,81.174C42.059,81.178 35.214,81.174 28.453,80.419C25.598,80.1 23.226,77.961 22.56,75.061C21.609,70.932 21.609,66.423 21.609,62.171C21.609,57.919 21.621,53.411 22.571,49.281C23.238,46.381 25.608,44.241 28.463,43.923C35.225,43.168 42.069,43.164 48.884,43.168C55.697,43.164 62.541,43.168 69.303,43.923C72.158,44.242 74.53,46.381 75.199,49.281C76.147,53.411 76.141,57.919 76.141,62.171C76.141,66.423 76.137,70.932 75.186,75.061Z" style="fill:white;"/>
            <clipPath id="_clip1">
                <path d="M75.186,75.061C74.518,77.96 72.147,80.1 69.292,80.419C62.529,81.174 55.688,81.178 48.872,81.174C42.059,81.178 35.214,81.174 28.453,80.419C25.598,80.1 23.226,77.961 22.56,75.061C21.609,70.932 21.609,66.423 21.609,62.171C21.609,57.919 21.621,53.411 22.571,49.281C23.238,46.381 25.608,44.241 28.463,43.923C35.225,43.168 42.069,43.164 48.884,43.168C55.697,43.164 62.541,43.168 69.303,43.923C72.158,44.242 74.53,46.381 75.199,49.281C76.147,53.411 76.141,57.919 76.141,62.171C76.141,66.423 76.137,70.932 75.186,75.061Z"/>
            </clipPath>
            <g clip-path="url(#_clip1)">
                <g>
                    <path d="M25.676,52.482L29.551,52.482L29.551,73.455L33.217,73.455L33.217,52.482L37.164,52.482L37.164,49.047L25.676,49.047L25.676,52.482Z" style="fill:rgba(210, 42, 35, 1);fill-opacity:0.968628;fill-rule:nonzero;"/>
                    <path d="M56.674,55.046C55.462,55.046 54.331,55.708 53.268,57.018L53.268,49.046L49.973,49.046L49.973,73.455L53.268,73.455L53.268,71.693C54.371,73.054 55.501,73.706 56.674,73.706C57.985,73.706 58.867,73.016 59.307,71.662C59.528,70.891 59.641,69.68 59.641,67.997L59.641,60.755C59.641,59.033 59.528,57.831 59.307,57.1C58.868,55.736 57.984,55.046 56.674,55.046ZM56.344,68.255C56.344,69.899 55.862,70.709 54.91,70.709C54.369,70.709 53.818,70.45 53.267,69.898L53.267,58.814C53.818,58.269 54.369,58.011 54.91,58.011C55.861,58.011 56.344,58.853 56.344,60.493L56.344,68.255Z" style="fill:rgba(210, 42, 35, 1);fill-opacity:0.968628;fill-rule:nonzero;"/>
                    <path d="M43.824,69.167C43.093,70.2 42.402,70.709 41.74,70.709C41.3,70.709 41.049,70.45 40.969,69.938C40.939,69.832 40.939,69.43 40.939,68.658L40.939,55.268L37.643,55.268L37.643,69.647C37.643,70.932 37.754,71.8 37.934,72.352C38.265,73.274 38.997,73.706 40.057,73.706C41.27,73.706 42.514,72.974 43.824,71.472L43.824,73.456L47.122,73.456L47.122,55.268L43.824,55.268L43.824,69.167Z" style="fill:rgba(210, 42, 35, 1);fill-opacity:0.968628;fill-rule:nonzero;"/>
                </g>
            </g>
        <path d="M67.17,55.046C65.484,55.046 64.175,55.665 63.223,56.91C62.524,57.83 62.205,59.252 62.205,61.195L62.205,67.566C62.205,69.499 62.562,70.931 63.264,71.842C64.215,73.084 65.528,73.705 67.252,73.705C68.973,73.705 70.324,73.054 71.236,71.733C71.636,71.149 71.896,70.488 72.006,69.758C72.037,69.428 72.076,68.697 72.076,67.634L72.076,67.155L68.715,67.155C68.715,68.475 68.672,69.208 68.643,69.387C68.455,70.268 67.981,70.708 67.17,70.708C66.038,70.708 65.484,69.868 65.484,68.186L65.484,64.96L72.076,64.96L72.076,61.193C72.076,59.25 71.747,57.828 71.056,56.908C70.135,55.666 68.824,55.046 67.17,55.046ZM68.782,62.218L65.486,62.218L65.486,60.535C65.486,58.853 66.039,58.012 67.14,58.012C68.23,58.012 68.782,58.854 68.782,60.535L68.782,62.218Z" style="fill:rgba(210, 42, 35, 1);fill-opacity:0.968628;fill-rule:nonzero;"/>    
        
    </symbol><!-- - youtube -->
    
    <symbol id="facebook" viewBox="0 0 50 50">
        <path d="M24.826,0C11.137,0 0,11.137 0,24.826C0,38.514 11.137,49.652 24.826,49.652C38.514,49.652 49.652,38.514 49.652,24.826C49.652,11.137 38.516,0 24.826,0Z" style="fill:rgba(48, 89, 144, 1);fill-opacity:0.992157;"/>
        <path d="M31,25.7L26.961,25.7C26.961,32.153 26.961,40.096 26.961,40.096L20.976,40.096C20.976,40.096 20.976,32.23 20.976,25.7L18.131,25.7L18.131,20.612L20.976,20.612L20.976,17.321C20.976,14.964 22.096,11.281 27.016,11.281L31.451,11.298L31.451,16.237C31.451,16.237 28.756,16.237 28.232,16.237C27.708,16.237 26.963,16.499 26.963,17.623L26.963,20.613L31.523,20.613L31,25.7Z" style="fill:white;fill-opacity:0.992157;"/>
    </symbol> <!-- - facebook -->
     
</svg>
